<?xml version="1.0" encoding="UTF-8" standalone="no" ?>
<!DOCTYPE svg PUBLIC "-//W3C//DTD SVG 1.1//EN" "http://www.w3.org/Graphics/SVG/1.1/DTD/svg11.dtd">
<svg xmlns="http://www.w3.org/2000/svg" xmlns:xlink="http://www.w3.org/1999/xlink" version="1.1" width="384" height="512" viewBox="0 0 384 512" xml:space="preserve">
<desc>Created with Fabric.js 3.6.3</desc>
<defs>
</defs>
<g transform="matrix(1 0 0 1 192.5 257.5)"  >
<path style="stroke: none; stroke-width: 1; stroke-dasharray: none; stroke-linecap: butt; stroke-dashoffset: 0; stroke-linejoin: miter; stroke-miterlimit: 4; fill: rgb(244,15,2); fill-rule: nonzero; opacity: 1;"  transform=" translate(-192, -256)" d="M 64 0 C 28.7 0 0 28.7 0 64 V 448 c 0 35.3 28.7 64 64 64 H 320 c 35.3 0 64 -28.7 64 -64 V 160 H 256 c -17.7 0 -32 -14.3 -32 -32 V 0 H 64 z M 256 0 V 128 H 384 L 256 0 z M 64 224 H 88 c 30.9 0 56 25.1 56 56 s -25.1 56 -56 56 H 80 v 32 c 0 8.8 -7.2 16 -16 16 s -16 -7.2 -16 -16 V 320 V 240 c 0 -8.8 7.2 -16 16 -16 z m 24 80 c 13.3 0 24 -10.7 24 -24 s -10.7 -24 -24 -24 H 80 v 48 h 8 z m 72 -64 c 0 -8.8 7.2 -16 16 -16 h 24 c 26.5 0 48 21.5 48 48 v 64 c 0 26.5 -21.5 48 -48 48 H 176 c -8.8 0 -16 -7.2 -16 -16 V 240 z m 32 112 h 8 c 8.8 0 16 -7.2 16 -16 V 272 c 0 -8.8 -7.2 -16 -16 -16 h -8 v 96 z m 96 -128 h 48 c 8.8 0 16 7.2 16 16 s -7.2 16 -16 16 H 304 v 32 h 32 c 8.8 0 16 7.2 16 16 s -7.2 16 -16 16 H 304 v 48 c 0 8.8 -7.2 16 -16 16 s -16 -7.2 -16 -16 V 304 V 240 c 0 -8.8 7.2 -16 16 -16 z" stroke-linecap="round" />
</g>
</svg>