<?xml version="1.0" encoding="UTF-8" standalone="no" ?>
<!DOCTYPE svg PUBLIC "-//W3C//DTD SVG 1.1//EN" "http://www.w3.org/Graphics/SVG/1.1/DTD/svg11.dtd">
<svg xmlns="http://www.w3.org/2000/svg" xmlns:xlink="http://www.w3.org/1999/xlink" version="1.1" width="384" height="512" viewBox="0 0 384 512" xml:space="preserve">
<desc>Created with Fabric.js 3.6.3</desc>
<defs>
</defs>
<g transform="matrix(1 0 0 1 192.5 256.5)"  >
<path style="stroke: none; stroke-width: 1; stroke-dasharray: none; stroke-linecap: butt; stroke-dashoffset: 0; stroke-linejoin: miter; stroke-miterlimit: 4; fill: rgb(255,142,18); fill-rule: nonzero; opacity: 1;"  transform=" translate(-192, -256)" d="M 64 0 C 28.7 0 0 28.7 0 64 V 448 c 0 35.3 28.7 64 64 64 H 320 c 35.3 0 64 -28.7 64 -64 V 160 H 256 c -17.7 0 -32 -14.3 -32 -32 V 0 H 64 z M 256 0 V 128 H 384 L 256 0 z M 153 289 l -31 31 l 31 31 c 9.4 9.4 9.4 24.6 0 33.9 s -24.6 9.4 -33.9 0 L 71 337 c -9.4 -9.4 -9.4 -24.6 0 -33.9 l 48 -48 c 9.4 -9.4 24.6 -9.4 33.9 0 s 9.4 24.6 0 33.9 z M 265 255 l 48 48 c 9.4 9.4 9.4 24.6 0 33.9 l -48 48 c -9.4 9.4 -24.6 9.4 -33.9 0 s -9.4 -24.6 0 -33.9 l 31 -31 l -31 -31 c -9.4 -9.4 -9.4 -24.6 0 -33.9 s 24.6 -9.4 33.9 0 z" stroke-linecap="round" />
</g>
</svg>