<?xml version="1.0" encoding="UTF-8" standalone="no" ?>
<!DOCTYPE svg PUBLIC "-//W3C//DTD SVG 1.1//EN" "http://www.w3.org/Graphics/SVG/1.1/DTD/svg11.dtd">
<svg xmlns="http://www.w3.org/2000/svg" xmlns:xlink="http://www.w3.org/1999/xlink" version="1.1" width="512" height="448" viewBox="0 0 512 448" xml:space="preserve">
<desc>Created with Fabric.js 3.6.3</desc>
<defs>
</defs>
<g transform="matrix(1 0 0 1 256.5 224.5)"  >
<linearGradient id="SVGID_599" gradientUnits="userSpaceOnUse" gradientTransform="matrix(1 0 0 1 0 32)"  x1="399.36" y1="40.32" x2="112.64" y2="407.68">
<stop offset="16.098%" style="stop-color:rgba(123, 61, 246, 1);"/>
<stop offset="100%" style="stop-color:rgba(254, 54, 54, 1);"/>
</linearGradient>
<path style="stroke: none; stroke-width: 1; stroke-dasharray: none; stroke-linecap: butt; stroke-dashoffset: 0; stroke-linejoin: miter; stroke-miterlimit: 4; fill: url(#SVGID_599); fill-rule: nonzero; opacity: 1;"  transform=" translate(-256, -256)" d="M 448 32 H 361.9 l -1 1 l -127 127 h 92.1 l 1 -1 L 453.8 32.3 c -1.9 -0.2 -3.8 -0.3 -5.8 -0.3 z m 64 128 V 96 c 0 -15.1 -5.3 -29.1 -14 -40 l -104 104 H 512 z M 294.1 32 H 201.9 l -1 1 L 73.9 160 h 92.1 l 1 -1 l 127 -127 z M 64 32 C 28.7 32 0 60.7 0 96 v 64 H 6.1 l 1 -1 l 127 -127 H 64 z M 512 192 H 0 V 416 c 0 35.3 28.7 64 64 64 H 448 c 35.3 0 64 -28.7 64 -64 V 192 z" stroke-linecap="round" />
</g>
</svg>