<?xml version="1.0" encoding="UTF-8" standalone="no" ?>
<!DOCTYPE svg PUBLIC "-//W3C//DTD SVG 1.1//EN" "http://www.w3.org/Graphics/SVG/1.1/DTD/svg11.dtd">
<svg xmlns="http://www.w3.org/2000/svg" xmlns:xlink="http://www.w3.org/1999/xlink" version="1.1" width="512" height="448" viewBox="0 0 512 448" xml:space="preserve">
<desc>Created with Fabric.js 3.6.3</desc>
<defs>
</defs>
<g transform="matrix(1 0 0 1 256.5 224.5)"  >
<path style="stroke: none; stroke-width: 1; stroke-dasharray: none; stroke-linecap: butt; stroke-dashoffset: 0; stroke-linejoin: miter; stroke-miterlimit: 4; fill: rgb(0,0,0); fill-rule: nonzero; opacity: 1;"  transform=" translate(-256, -256)" d="M 448 32 H 361.9 l -1 1 l -127 127 h 92.1 l 1 -1 L 453.8 32.3 c -1.9 -0.2 -3.8 -0.3 -5.8 -0.3 z m 64 128 V 96 c 0 -15.1 -5.3 -29.1 -14 -40 l -104 104 H 512 z M 294.1 32 H 201.9 l -1 1 L 73.9 160 h 92.1 l 1 -1 l 127 -127 z M 64 32 C 28.7 32 0 60.7 0 96 v 64 H 6.1 l 1 -1 l 127 -127 H 64 z M 512 192 H 0 V 416 c 0 35.3 28.7 64 64 64 H 448 c 35.3 0 64 -28.7 64 -64 V 192 z" stroke-linecap="round" />
</g>
<g transform="matrix(4.13 0 0 1.82 255.02 304.78)"  >
<polygon style="stroke: rgb(0,0,0); stroke-width: 8; stroke-dasharray: none; stroke-linecap: butt; stroke-dashoffset: 0; stroke-linejoin: miter; stroke-miterlimit: 4; fill: rgb(255,255,255); fill-rule: nonzero; opacity: 1;"  points="-50,-50 -50,50 50,50 50,-50 " />
</g>
<g transform="matrix(1 0 0 1 399.26 336.67)"  >
<path style="stroke: rgb(255,255,255); stroke-width: 25; stroke-dasharray: none; stroke-linecap: round; stroke-dashoffset: 0; stroke-linejoin: round; stroke-miterlimit: 10; fill: none; fill-rule: nonzero; opacity: 1;"  transform=" translate(-400.27, -336.67)" d="M 400.2416625976563 336.66666666666663 L 400.2916625976562 336.66666666666663" stroke-linecap="round" />
</g>
<g transform="matrix(1 0 0 1 466.26 350.33)"  >
<path style="stroke: rgb(0,0,0); stroke-width: 25; stroke-dasharray: none; stroke-linecap: round; stroke-dashoffset: 0; stroke-linejoin: round; stroke-miterlimit: 10; fill: none; fill-rule: nonzero; opacity: 1;"  transform=" translate(-467.27, -350.33)" d="M 466.9333292643229 348.64166666666665 Q 466.9333292643229 348.66666666666663 466.9333292643229 349 Q 466.9333292643229 349.3333333333333 466.9333292643229 349.66666666666663 Q 466.9333292643229 350 466.9333292643229 350.3333333333333 Q 466.9333292643229 350.66666666666663 466.9333292643229 351 Q 466.9333292643229 351.3333333333333 467.26666259765625 351.3333333333333 Q 467.59999593098956 351.3333333333333 467.59999593098956 351.66666666666663 L 467.59999593098956 352.025" stroke-linecap="round" />
</g>
<g transform="matrix(1 0 0 1 470.2 366.5)"  >
<path style="stroke: rgb(0,0,0); stroke-width: 25; stroke-dasharray: none; stroke-linecap: round; stroke-dashoffset: 0; stroke-linejoin: round; stroke-miterlimit: 10; fill: none; fill-rule: nonzero; opacity: 1;"  transform=" translate(-471.2, -366.5)" d="M 470.6999969482422 360.475 Q 470.6999969482422 360.5 470.9499969482422 360.5 Q 471.1999969482422 360.5 471.1999969482422 360.75 Q 471.1999969482422 361 471.1999969482422 361.25 Q 471.1999969482422 361.5 471.1999969482422 361.75 Q 471.1999969482422 362 471.1999969482422 362.25 Q 471.1999969482422 362.5 471.1999969482422 362.75 Q 471.1999969482422 363 471.1999969482422 363.25 Q 471.1999969482422 363.5 471.1999969482422 363.75 Q 471.1999969482422 364 471.1999969482422 364.25 Q 471.1999969482422 364.5 471.1999969482422 364.75 Q 471.1999969482422 365 471.1999969482422 365.25 Q 471.1999969482422 365.5 471.1999969482422 365.75 Q 471.1999969482422 366 471.1999969482422 366.25 Q 471.1999969482422 366.5 471.1999969482422 366.75 Q 471.1999969482422 367 471.1999969482422 366.75 Q 471.1999969482422 366.5 471.1999969482422 366.25 Q 471.1999969482422 366 471.4499969482422 365.75 Q 471.6999969482422 365.5 471.6999969482422 365.25 Q 471.6999969482422 365 471.6999969482422 364.75 Q 471.6999969482422 364.5 471.6999969482422 364.25 Q 471.6999969482422 364 471.6999969482422 363.75 Q 471.6999969482422 363.5 471.6999969482422 363.25 Q 471.6999969482422 363 471.6999969482422 362.75 Q 471.6999969482422 362.5 471.6999969482422 362.25 Q 471.6999969482422 362 471.6999969482422 362.25 Q 471.6999969482422 362.5 471.6999969482422 362.75 Q 471.6999969482422 363 471.6999969482422 363.25 Q 471.6999969482422 363.5 471.6999969482422 363.75 Q 471.6999969482422 364 471.6999969482422 364.25 Q 471.6999969482422 364.5 471.6999969482422 364.75 Q 471.6999969482422 365 471.4499969482422 365 Q 471.1999969482422 365 471.1999969482422 365.25 Q 471.1999969482422 365.5 471.1999969482422 366 Q 471.1999969482422 366.5 470.9499969482422 366.75 Q 470.6999969482422 367 470.6999969482422 367.25 Q 470.6999969482422 367.5 470.6999969482422 367.75 Q 470.6999969482422 368 470.6999969482422 368.25 Q 470.6999969482422 368.5 470.6999969482422 368.75 Q 470.6999969482422 369 470.6999969482422 369.25 Q 470.6999969482422 369.5 470.6999969482422 369.75 Q 470.6999969482422 370 470.6999969482422 370.25 Q 470.6999969482422 370.5 470.6999969482422 370.75 Q 470.6999969482422 371 470.4499969482422 371 Q 470.1999969482422 371 470.1999969482422 370.5 Q 470.1999969482422 370 470.1999969482422 369.75 Q 470.1999969482422 369.5 470.1999969482422 369.25 Q 470.1999969482422 369 470.1999969482422 368.75 Q 470.1999969482422 368.5 470.1999969482422 368.25 Q 470.1999969482422 368 470.1999969482422 367.75 Q 470.1999969482422 367.5 470.1999969482422 367.25 Q 470.1999969482422 367 470.1999969482422 366.75 Q 470.1999969482422 366.5 470.1999969482422 366.25 Q 470.1999969482422 366 470.1999969482422 365.75 Q 470.1999969482422 365.5 470.1999969482422 365.25 Q 470.1999969482422 365 470.1999969482422 364.75 Q 470.1999969482422 364.5 470.1999969482422 364.75 Q 470.1999969482422 365 470.1999969482422 365.25 Q 470.1999969482422 365.5 470.1999969482422 365.75 Q 470.1999969482422 366 470.1999969482422 366.25 Q 470.1999969482422 366.5 470.1999969482422 366.75 Q 470.1999969482422 367 470.1999969482422 367.25 Q 470.1999969482422 367.5 470.1999969482422 367.75 Q 470.1999969482422 368 470.1999969482422 368.25 Q 470.1999969482422 368.5 470.1999969482422 368.75 Q 470.1999969482422 369 470.1999969482422 369.25 Q 470.1999969482422 369.5 470.1999969482422 369.75 Q 470.1999969482422 370 470.1999969482422 370.25 Q 470.1999969482422 370.5 470.1999969482422 370.75 Q 470.1999969482422 371 470.1999969482422 371.25 Q 470.1999969482422 371.5 470.1999969482422 371.75 Q 470.1999969482422 372 470.1999969482422 372.25 Q 470.1999969482422 372.5 470.1999969482422 372.75 Q 470.1999969482422 373 470.1999969482422 373.25 Q 470.1999969482422 373.5 469.9499969482422 373.75 Q 469.6999969482422 374 469.6999969482422 374.25 Q 469.6999969482422 374.5 469.4499969482422 374.5 Q 469.1999969482422 374.5 469.1999969482422 374.75 Q 469.1999969482422 375 469.1999969482422 374.75 Q 469.1999969482422 374.5 469.1999969482422 373.75 Q 469.1999969482422 373 469.1999969482422 372.5 Q 469.1999969482422 372 469.4499969482422 371.75 Q 469.6999969482422 371.5 469.6999969482422 371.25 Q 469.6999969482422 371 469.6999969482422 370.75 Q 469.6999969482422 370.5 469.9499969482422 370.5 Q 470.1999969482422 370.5 470.1999969482422 370.25 Q 470.1999969482422 370 470.1999969482422 369.75 Q 470.1999969482422 369.5 470.1999969482422 369.25 Q 470.1999969482422 369 470.1999969482422 368.75 Q 470.1999969482422 368.5 470.1999969482422 368.25 Q 470.1999969482422 368 470.1999969482422 367.75 Q 470.1999969482422 367.5 470.4499969482422 367.5 Q 470.6999969482422 367.5 470.6999969482422 367.25 Q 470.6999969482422 367 470.9499969482422 367 Q 471.1999969482422 367 471.1999969482422 366.75 Q 471.1999969482422 366.5 471.1999969482422 366 Q 471.1999969482422 365.5 471.4499969482422 365.5 Q 471.6999969482422 365.5 471.6999969482422 365.25 Q 471.6999969482422 365 471.6999969482422 364.75 Q 471.6999969482422 364.5 471.6999969482422 364.25 Q 471.6999969482422 364 471.6999969482422 363.75 Q 471.6999969482422 363.5 471.9499969482422 363.5 Q 472.1999969482422 363.5 472.1999969482422 363.25 Q 472.1999969482422 363 472.1999969482422 362.75 Q 472.1999969482422 362.5 472.1999969482422 362.25 Q 472.1999969482422 362 472.1999969482422 361.75 Q 472.1999969482422 361.5 472.1999969482422 361.25 Q 472.1999969482422 361 472.1999969482422 360.75 Q 472.1999969482422 360.5 472.4499969482422 360.25 Q 472.6999969482422 360 472.6999969482422 359.75 Q 472.6999969482422 359.5 472.6999969482422 359.25 Q 472.6999969482422 359 472.9499969482422 359 Q 473.1999969482422 359 473.1999969482422 358.75 Q 473.1999969482422 358.5 473.1999969482422 358.25 Q 473.1999969482422 358 473.1999969482422 358.25 Q 473.1999969482422 358.5 473.1999969482422 358.75 Q 473.1999969482422 359 472.9499969482422 359.25 Q 472.6999969482422 359.5 472.6999969482422 360 Q 472.6999969482422 360.5 472.4499969482422 360.75 Q 472.1999969482422 361 472.1999969482422 361.25 Q 472.1999969482422 361.5 471.6999969482422 362 Q 471.1999969482422 362.5 470.9499969482422 362.75 Q 470.6999969482422 363 470.6999969482422 363.5 Q 470.6999969482422 364 470.6999969482422 364.25 Q 470.6999969482422 364.5 470.6999969482422 364.75 Q 470.6999969482422 365 470.6999969482422 365.25 Q 470.6999969482422 365.5 470.6999969482422 365.75 Q 470.6999969482422 366 470.6999969482422 366.25 Q 470.6999969482422 366.5 470.6999969482422 366.75 Q 470.6999969482422 367 470.6999969482422 367.25 L 470.6999969482422 367.525" stroke-linecap="round" />
</g>
<g transform="matrix(1 0 0 1 462.5 369.5)"  >
<path style="stroke: rgb(0,0,0); stroke-width: 25; stroke-dasharray: none; stroke-linecap: round; stroke-dashoffset: 0; stroke-linejoin: round; stroke-miterlimit: 10; fill: none; fill-rule: nonzero; opacity: 1;"  transform=" translate(-463.5, -369.5)" d="M 463.975 369 Q 464 369 463.5 369.5 L 463.025 370" stroke-linecap="round" />
</g>
<g transform="matrix(1 0 0 1 448.56 370.49)"  >
<path style="stroke: rgb(0,0,0); stroke-width: 25; stroke-dasharray: none; stroke-linecap: round; stroke-dashoffset: 0; stroke-linejoin: round; stroke-miterlimit: 10; fill: none; fill-rule: nonzero; opacity: 1;"  transform=" translate(-449.56, -370.49)" d="M 471 370.975 Q 471 371 471 371.5 Q 471 372 471 372.5 Q 471 373 471 373.5 Q 471 374 470.5 374 Q 470 374 469.5 374.5 Q 469 375 468.5 375 Q 468 375 468 376 Q 468 377 468 377.5 Q 468 378 467.5 378 Q 467 378 466.5 378.5 Q 466 379 466 379.5 Q 466 380 465.5 380 Q 465 380 465 380.5 Q 465 381 464.5 381.5 Q 464 382 464 382.5 Q 464 383 463.5 383 Q 463 383 462.5 383.5 Q 462 384 462 384.5 Q 462 385 461.5 385.5 Q 461 386 460.5 386 Q 460 386 460 386.5 Q 460 387 459 387 Q 458 387 458 388 Q 458 389 457 389.5 Q 456 390 455.5 390 Q 455 390 454.5 390.5 Q 454 391 453.5 391 Q 453 391 453 391.5 Q 453 392 452.5 392.5 Q 452 393 452 393.5 Q 452 394 451.5 394 Q 451 394 450.5 394 Q 450 394 449 394 Q 448 394 448 394.5 Q 448 395 447.5 395 Q 447 395 447 395.5 Q 447 396 446.5 396 Q 446 396 445.5 396.5 Q 445 397 444.5 397 Q 444 397 443.5 397 Q 443 397 442.5 397.5 Q 442 398 441 398 Q 440 398 440 398.5 Q 440 399 439.5 399 Q 439 399 438.5 399 Q 438 399 437.5 399 Q 437 399 436.5 399 Q 436 399 436 399.5 Q 436 400 435.5 400 Q 435 400 435 400.5 Q 435 401 434 401 Q 433 401 432.5 401 Q 432 401 431.5 401 Q 431 401 430.5 401 Q 430 401 429.5 401.5 Q 429 402 428.5 402 Q 428 402 428.5 402 Q 429 402 429.5 402 Q 430 402 430.5 402 Q 431 402 431.5 402 Q 432 402 433 402 Q 434 402 434 401.5 Q 434 401 434.5 401 Q 435 401 435.5 400.5 Q 436 400 436.5 400 Q 437 400 437.5 399.5 Q 438 399 438.5 398.5 Q 439 398 439.5 398 Q 440 398 440.5 398 Q 441 398 441 397.5 Q 441 397 441.5 397 Q 442 397 442 396.5 Q 442 396 442.5 396 Q 443 396 443.5 396 Q 444 396 444 395.5 Q 444 395 444 394.5 Q 444 394 444.5 394 Q 445 394 445.5 394 Q 446 394 446.5 393.5 Q 447 393 447.5 392.5 Q 448 392 448 391.5 Q 448 391 448.5 390.5 Q 449 390 449.5 390 Q 450 390 450 389.5 Q 450 389 450.5 389 Q 451 389 451 388.5 Q 451 388 451.5 388 Q 452 388 452 387.5 Q 452 387 452 386.5 Q 452 386 452.5 386 Q 453 386 453 385.5 Q 453 385 453 384.5 Q 453 384 453.5 384 Q 454 384 454 383.5 Q 454 383 454.5 383 Q 455 383 455 382.5 Q 455 382 455.5 382 Q 456 382 456 381.5 Q 456 381 456 380.5 Q 456 380 456 379.5 Q 456 379 456.5 378.5 Q 457 378 457 377.5 Q 457 377 457 376.5 Q 457 376 457.5 376 Q 458 376 458 375.5 Q 458 375 458.5 374.5 Q 459 374 459.5 374 Q 460 374 460 373.5 Q 460 373 460 372.5 Q 460 372 460 371.5 Q 460 371 460 370.5 Q 460 370 460 369.5 Q 460 369 460 368.5 Q 460 368 460.5 368 Q 461 368 461 367.5 Q 461 367 461 366.5 Q 461 366 461 365.5 Q 461 365 461 364.5 Q 461 364 461 363.5 Q 461 363 461 362.5 Q 461 362 461.5 362 Q 462 362 462 361.5 Q 462 361 462 360.5 Q 462 360 462 359.5 Q 462 359 462 358.5 Q 462 358 462 357.5 Q 462 357 462 356.5 Q 462 356 462.5 356 Q 463 356 463 355 Q 463 354 463.5 354 Q 464 354 464 353.5 Q 464 353 464 352.5 Q 464 352 464 351 Q 464 350 464 349.5 Q 464 349 464 348.5 Q 464 348 464 347.5 Q 464 347 464 346.5 Q 464 346 464 345.5 Q 464 345 464 344.5 Q 464 344 464 343.5 Q 464 343 464.5 343 Q 465 343 465 342.5 Q 465 342 465 341.5 Q 465 341 465 340.5 Q 465 340 465 339.5 L 465 338.975" stroke-linecap="round" />
</g>
<g transform="matrix(1 0 0 1 68.44 384.57)"  >
<path style="stroke: rgb(0,0,0); stroke-width: 25; stroke-dasharray: none; stroke-linecap: round; stroke-dashoffset: 0; stroke-linejoin: round; stroke-miterlimit: 10; fill: none; fill-rule: nonzero; opacity: 1;"  transform=" translate(-69.44, -384.57)" d="M 52 364.975 Q 52 365 52 365.5 Q 52 366 52 366.5 Q 52 367 52 367.5 Q 52 368 52 368.5 Q 52 369 52 369.5 Q 52 370 52 370.5 Q 52 371 52 371.5 Q 52 372 52 372.5 Q 52 373 52 373.5 Q 52 374 52 374.5 Q 52 375 52 375.5 Q 52 376 52 376.5 Q 52 377 52 377.5 Q 52 378 52 379 Q 52 380 52.5 380.5 Q 53 381 53 381.5 Q 53 382 53.5 382 Q 54 382 54 382.5 Q 54 383 54 383.5 Q 54 384 54 384.5 Q 54 385 54.5 385.5 Q 55 386 55.5 386.5 Q 56 387 56 387.5 Q 56 388 56 388.5 Q 56 389 56 389.5 Q 56 390 56.5 390 Q 57 390 57.5 390.5 Q 58 391 58 391.5 Q 58 392 58.5 392 Q 59 392 59 392.5 Q 59 393 59 393.5 Q 59 394 59.5 394 Q 60 394 60 394.5 Q 60 395 60 395.5 Q 60 396 60.5 396 Q 61 396 61.5 396 Q 62 396 62 396.5 Q 62 397 62.5 397.5 Q 63 398 63.5 398 Q 64 398 64.5 398 Q 65 398 65 398.5 Q 65 399 65.5 399 Q 66 399 66 399.5 Q 66 400 66.5 400 Q 67 400 67.5 400 Q 68 400 68 400.5 Q 68 401 68.5 401 Q 69 401 69.5 401.5 Q 70 402 70.5 402 Q 71 402 71.5 402 Q 72 402 72.5 402 Q 73 402 73.5 402 Q 74 402 74.5 402.5 Q 75 403 75.5 403 Q 76 403 76.5 403.5 Q 77 404 77.5 404 Q 78 404 78.5 404 Q 79 404 79.5 404 Q 80 404 80.5 404 Q 81 404 81.5 404 Q 82 404 82.5 404 Q 83 404 83.5 404 Q 84 404 84.5 404 Q 85 404 85.5 404 Q 86 404 86.5 404 Q 87 404 86.5 404 Q 86 404 85.5 404 Q 85 404 84.5 404 Q 84 404 83.5 404 Q 83 404 82.5 403.5 Q 82 403 81.5 403 Q 81 403 80.5 402.5 Q 80 402 79.5 402 Q 79 402 78.5 402 Q 78 402 77 401.5 Q 76 401 75.5 401 Q 75 401 75 400.5 Q 75 400 74 400 Q 73 400 72.5 399.5 Q 72 399 71.5 399 Q 71 399 71 398.5 Q 71 398 70.5 398 Q 70 398 69.5 398 Q 69 398 68.5 397.5 Q 68 397 68 396.5 Q 68 396 67.5 396 Q 67 396 67 395.5 Q 67 395 66.5 395 Q 66 395 65.5 394.5 Q 65 394 64.5 393.5 Q 64 393 64 392.5 Q 64 392 64 391.5 Q 64 391 63.5 391 Q 63 391 63 390.5 Q 63 390 62.5 390 Q 62 390 62 389.5 Q 62 389 61.5 389 Q 61 389 60.5 388 Q 60 387 60 386.5 Q 60 386 59.5 386 Q 59 386 59 385.5 Q 59 385 59 384.5 Q 59 384 58.5 383.5 Q 58 383 57.5 383 Q 57 383 57 382.5 Q 57 382 57 381.5 Q 57 381 56.5 380.5 Q 56 380 56 379.5 Q 56 379 56 378.5 Q 56 378 55.5 377.5 Q 55 377 55 376 Q 55 375 55 374.5 Q 55 374 55 373.5 Q 55 373 54.5 372.5 Q 54 372 54 371.5 Q 54 371 54 370.5 Q 54 370 54 369.5 Q 54 369 54 368.5 Q 54 368 53.5 367.5 Q 53 367 53 366.5 Q 53 366 53 365.5 Q 53 365 53 364.5 Q 53 364 53 363.5 Q 53 363 53 362.5 Q 53 362 53 362.5 Q 53 363 53 363.5 Q 53 364 53 364.5 Q 53 365 53 365.5 Q 53 366 53 366.5 Q 53 367 53 367.5 Q 53 368 53 368.5 Q 53 369 53 369.5 Q 53 370 53 370.5 Q 53 371 53 371.5 Q 53 372 53 372.5 Q 53 373 53 373.5 Q 53 374 53 374.5 Q 53 375 53 375.5 Q 53 376 53 376.5 Q 53 377 53 377.5 Q 53 378 53 378.5 Q 53 379 53 379.5 Q 53 380 53 380.5 Q 53 381 53.5 381.5 Q 54 382 54 382.5 Q 54 383 54 383.5 Q 54 384 54 384.5 Q 54 385 54.5 385 Q 55 385 55 385.5 Q 55 386 55.5 386 Q 56 386 56 386.5 Q 56 387 56 387.5 Q 56 388 56 388.5 Q 56 389 56 389.5 Q 56 390 56.5 390 Q 57 390 57 390.5 Q 57 391 57 391.5 Q 57 392 57.5 392 Q 58 392 58 392.5 Q 58 393 58 393.5 Q 58 394 58.5 394 Q 59 394 59 395 Q 59 396 59.5 396 Q 60 396 60 396.5 Q 60 397 60 397.5 Q 60 398 60.5 398 Q 61 398 61.5 398.5 Q 62 399 62 399.5 Q 62 400 62.5 400.5 Q 63 401 63.5 401.5 Q 64 402 64.5 402 Q 65 402 65.5 402.5 Q 66 403 66 403.5 Q 66 404 66.5 404 Q 67 404 67.5 404 Q 68 404 68 404.5 Q 68 405 68.5 405 Q 69 405 69.5 405 Q 70 405 70 405.5 Q 70 406 71 406 Q 72 406 72.5 406 Q 73 406 73.5 406 Q 74 406 74.5 406 Q 75 406 75.5 406 Q 76 406 76 406.5 L 76 407.025" stroke-linecap="round" />
</g>
<g transform="matrix(1 0 0 1 74.5 400.5)"  >
<path style="stroke: rgb(0,0,0); stroke-width: 25; stroke-dasharray: none; stroke-linecap: round; stroke-dashoffset: 0; stroke-linejoin: round; stroke-miterlimit: 10; fill: none; fill-rule: nonzero; opacity: 1;"  transform=" translate(-75.5, -400.5)" d="M 63.975 395 Q 64 395 64.5 395 Q 65 395 65.5 395 Q 66 395 66 395.5 Q 66 396 66.5 396 Q 67 396 67.5 396.5 Q 68 397 68 397.5 Q 68 398 68.5 398 Q 69 398 69.5 398 Q 70 398 70 398.5 Q 70 399 70 399.5 Q 70 400 70.5 400 Q 71 400 71.5 400 Q 72 400 72 400.5 Q 72 401 72 401.5 Q 72 402 72.5 402 Q 73 402 73.5 402 Q 74 402 74.5 402 Q 75 402 75.5 402 Q 76 402 76 402.5 Q 76 403 76.5 403 Q 77 403 77.5 403 Q 78 403 78 403.5 Q 78 404 78.5 404 Q 79 404 79.5 404 Q 80 404 80.5 404 Q 81 404 81.5 404 Q 82 404 82 404.5 Q 82 405 82.5 405 Q 83 405 83.5 405 Q 84 405 84.5 405 Q 85 405 85 405.5 Q 85 406 84.5 406 Q 84 406 84 405.5 Q 84 405 83.5 405 Q 83 405 82.5 405 Q 82 405 81.5 405 Q 81 405 81 404.5 Q 81 404 80.5 403.5 Q 80 403 80 402.5 Q 80 402 79.5 402 Q 79 402 78.5 402 Q 78 402 77.5 402 Q 77 402 76.5 401.5 Q 76 401 75.5 401 Q 75 401 75 400.5 Q 75 400 74.5 400 Q 74 400 73.5 400 Q 73 400 73 399.5 Q 73 399 72.5 399 Q 72 399 71.5 399 Q 71 399 71 398.5 Q 71 398 70.5 398 Q 70 398 69.5 398 Q 69 398 68.5 398 Q 68 398 68 397.5 Q 68 397 68.5 397 Q 69 397 69.5 397 Q 70 397 70 397.5 Q 70 398 70.5 398 Q 71 398 71.5 398 Q 72 398 72.5 398 Q 73 398 73.5 398 Q 74 398 74.5 398 Q 75 398 75 398.5 Q 75 399 75.5 399 Q 76 399 76 399.5 Q 76 400 76.5 400 Q 77 400 77.5 400 Q 78 400 78 400.5 Q 78 401 78.5 401 Q 79 401 79 401.5 Q 79 402 79.5 402 Q 80 402 80.5 402 Q 81 402 81.5 402 Q 82 402 82 402.5 Q 82 403 82.5 403 Q 83 403 83.5 403 Q 84 403 84.5 403.5 Q 85 404 85.5 404 Q 86 404 86.5 404 L 87.025 404" stroke-linecap="round" />
</g>
<g transform="matrix(1 0 0 1 67 376.99)"  >
<path style="stroke: rgb(0,0,0); stroke-width: 25; stroke-dasharray: none; stroke-linecap: round; stroke-dashoffset: 0; stroke-linejoin: round; stroke-miterlimit: 10; fill: none; fill-rule: nonzero; opacity: 1;"  transform=" translate(-68, -376.99)" d="M 96.025 405 Q 96 405 95.5 405 Q 95 405 94.5 405 Q 94 405 94 404.5 Q 94 404 93.5 404 Q 93 404 92.5 403.5 Q 92 403 91.5 403 Q 91 403 90.5 403 Q 90 403 89.5 402.5 Q 89 402 88.5 402 Q 88 402 87.5 402 Q 87 402 86.5 402 Q 86 402 85.5 402 Q 85 402 84.5 402 Q 84 402 84 401.5 Q 84 401 83.5 401 Q 83 401 82.5 401 Q 82 401 81.5 401 Q 81 401 80.5 401 Q 80 401 80 400.5 Q 80 400 79.5 400 Q 79 400 79 399.5 Q 79 399 78.5 399 Q 78 399 77.5 399 Q 77 399 76.5 399 Q 76 399 76 398.5 Q 76 398 75.5 398 Q 75 398 74.5 398 Q 74 398 73.5 398 Q 73 398 72.5 397.5 Q 72 397 71.5 397 Q 71 397 71 396.5 Q 71 396 70.5 396 Q 70 396 69.5 396 Q 69 396 68.5 395.5 Q 68 395 67.5 394.5 Q 67 394 66.5 394 Q 66 394 65.5 394 Q 65 394 64.5 393.5 Q 64 393 63.5 393 Q 63 393 63 392.5 Q 63 392 62.5 391.5 Q 62 391 61.5 391 Q 61 391 60.5 390.5 Q 60 390 59.5 389.5 Q 59 389 58.5 389 Q 58 389 58 388.5 Q 58 388 57.5 387.5 Q 57 387 56.5 387 Q 56 387 56 386.5 Q 56 386 55.5 385.5 Q 55 385 54.5 385 Q 54 385 53.5 384 Q 53 383 52.5 382.5 Q 52 382 51.5 381.5 Q 51 381 51 380 Q 51 379 50.5 379 Q 50 379 50 378.5 Q 50 378 49.5 377.5 Q 49 377 49 376 Q 49 375 48.5 374.5 Q 48 374 48 372.5 Q 48 371 47.5 370.5 Q 47 370 47 369 Q 47 368 46.5 367 Q 46 366 46 365 Q 46 364 45.5 363 Q 45 362 44.5 360.5 Q 44 359 44 358.5 Q 44 358 43.5 357.5 Q 43 357 43 356 Q 43 355 43 354.5 Q 43 354 42.5 353.5 Q 42 353 41.5 352 Q 41 351 41 350.5 Q 41 350 40.5 349.5 L 39.975 348.975" stroke-linecap="round" />
</g>
</svg>