<?xml version="1.0" encoding="UTF-8" standalone="no" ?>
<!DOCTYPE svg PUBLIC "-//W3C//DTD SVG 1.1//EN" "http://www.w3.org/Graphics/SVG/1.1/DTD/svg11.dtd">
<svg xmlns="http://www.w3.org/2000/svg" xmlns:xlink="http://www.w3.org/1999/xlink" version="1.1" width="384" height="512" viewBox="0 0 384 512" xml:space="preserve">
<desc>Created with Fabric.js 3.6.3</desc>
<defs>
</defs>
<g transform="matrix(1 0 0 1 192.5 256.5)"  >
<path style="stroke: none; stroke-width: 1; stroke-dasharray: none; stroke-linecap: butt; stroke-dashoffset: 0; stroke-linejoin: miter; stroke-miterlimit: 4; fill: rgb(53,126,199); fill-rule: nonzero; opacity: 1;"  transform=" translate(-192, -256)" d="M 64 0 C 28.7 0 0 28.7 0 64 V 448 c 0 35.3 28.7 64 64 64 H 320 c 35.3 0 64 -28.7 64 -64 V 160 H 256 c -17.7 0 -32 -14.3 -32 -32 V 0 H 64 z M 256 0 V 128 H 384 L 256 0 z M 111 257.1 l 26.8 89.2 l 31.6 -90.3 c 3.4 -9.6 12.5 -16.1 22.7 -16.1 s 19.3 6.4 22.7 16.1 l 31.6 90.3 L 273 257.1 c 3.8 -12.7 17.2 -19.9 29.9 -16.1 s 19.9 17.2 16.1 29.9 l -48 160 c -3 10 -12.1 16.9 -22.4 17.1 s -19.8 -6.2 -23.2 -16.1 L 192 336.6 l -33.3 95.3 c -3.4 9.8 -12.8 16.3 -23.2 16.1 s -19.5 -7.1 -22.4 -17.1 l -48 -160 c -3.8 -12.7 3.4 -26.1 16.1 -29.9 s 26.1 3.4 29.9 16.1 z" stroke-linecap="round" />
</g>
</svg>